<svg xmlns="http://www.w3.org/2000/svg" width="25" height="23" viewBox="0 0 50 46">
    <defs>
        <clipPath id="tzsfa">
            <path fill="#fff"
                  d="M0 46V0h50v46zM47.5 8.17c0-1.249-1.23-2.265-2.74-2.265h-1.471c-.852 0-1.545.574-1.545 1.28v.984c0 1.38-1.35 2.501-3.012 2.501-.87 0-1.696-.317-2.265-.871-.29-.283-.715-.445-1.165-.445-.45 0-.873.161-1.164.443-.573.555-1.402.873-2.276.873-.869 0-1.695-.318-2.266-.872-.29-.283-.715-.444-1.164-.444-.45 0-.874.162-1.165.444-.57.554-1.4.872-2.273.872-.859 0-1.679-.313-2.25-.858-.303-.29-.74-.453-1.197-.454-.442.001-.86.162-1.147.441-.569.553-1.396.871-2.27.871-.872 0-1.699-.318-2.27-.871-.292-.282-.713-.444-1.165-.443-.45 0-.874.162-1.165.444-.569.553-1.396.87-2.268.87-1.661 0-3.012-1.122-3.012-2.5v-.985c0-.706-.693-1.28-1.544-1.28H5.234C3.727 5.905 2.5 6.922 2.5 8.172v33.36c0 1.249 1.227 2.264 2.734 2.264H44.76c1.51 0 2.74-1.015 2.74-2.264V8.17zm-3.04 31.239c0 .805-.882 1.46-1.965 1.46H7.502c-1.082 0-1.962-.655-1.962-1.46V15.523c0-.802.88-1.455 1.962-1.455h34.993c1.083 0 1.965.653 1.965 1.455zM38.733 10.07c1.26 0 2.286-.853 2.286-1.902V4.302c0-1.043-1.026-1.892-2.286-1.892-1.238 0-2.284.866-2.284 1.892V8.17c0 1.049 1.024 1.902 2.284 1.902zm-6.87 0c1.262 0 2.289-.853 2.289-1.902V4.302c0-1.043-1.027-1.892-2.29-1.892-1.257 0-2.28.849-2.28 1.892V8.17c0 1.049 1.023 1.902 2.28 1.902zm-13.736 0c1.263 0 2.29-.853 2.29-1.902V4.302c0-1.043-1.027-1.892-2.29-1.892-1.256 0-2.277.849-2.277 1.892V8.17c0 1.049 1.021 1.902 2.277 1.902zm-6.865 0c1.262 0 2.289-.853 2.289-1.902V4.302c0-1.043-1.027-1.892-2.29-1.892-1.257 0-2.28.849-2.28 1.892V8.17c0 1.049 1.023 1.902 2.28 1.902zm13.735 0c1.26 0 2.286-.853 2.286-1.902V4.302c0-1.043-1.025-1.892-2.286-1.892-1.236 0-2.28.866-2.28 1.892V8.17c0 1.049 1.023 1.902 2.28 1.902zm-5.146 6.214h-3.366c-.69 0-1.251.466-1.251 1.037v2.79c0 .571.561 1.037 1.25 1.037h3.367c.69 0 1.25-.466 1.25-1.037v-2.79c0-.571-.56-1.037-1.25-1.037zm6.832 0h-3.366c-.69 0-1.25.466-1.25 1.037v2.79c0 .571.56 1.037 1.25 1.037h3.366c.69 0 1.25-.466 1.25-1.037v-2.79c0-.571-.56-1.037-1.25-1.037zm6.832 0H30.15c-.69 0-1.25.466-1.25 1.037v2.79c0 .571.56 1.037 1.25 1.037h3.366c.69 0 1.251-.466 1.251-1.037v-2.79c0-.571-.56-1.037-1.25-1.037zm6.833 0h-3.366c-.69 0-1.251.466-1.251 1.037v2.79c0 .571.561 1.037 1.25 1.037h3.367c.69 0 1.25-.466 1.25-1.037v-2.79c0-.571-.56-1.037-1.25-1.037zm-27.33 5.835H9.652c-.69 0-1.25.465-1.25 1.036v2.79c0 .572.56 1.037 1.25 1.037h3.366c.69 0 1.251-.465 1.251-1.037v-2.79c0-.571-.561-1.036-1.25-1.036zm6.833 0h-3.366c-.69 0-1.251.465-1.251 1.036v2.79c0 .572.561 1.037 1.25 1.037h3.367c.69 0 1.25-.465 1.25-1.037v-2.79c0-.571-.56-1.036-1.25-1.036zm6.832 0h-3.366c-.69 0-1.25.465-1.25 1.036v2.79c0 .572.56 1.037 1.25 1.037h3.366c.69 0 1.25-.465 1.25-1.037v-2.79c0-.571-.56-1.036-1.25-1.036zm6.832 0H30.15c-.69 0-1.25.465-1.25 1.036v2.79c0 .572.56 1.037 1.25 1.037h3.366c.69 0 1.251-.465 1.251-1.037v-2.79c0-.571-.56-1.036-1.25-1.036zm6.833 0h-3.366c-.69 0-1.251.465-1.251 1.036v2.79c0 .572.561 1.037 1.25 1.037h3.367c.69 0 1.25-.465 1.25-1.037v-2.79c0-.571-.56-1.036-1.25-1.036zm-27.33 5.834H9.652c-.69 0-1.25.465-1.25 1.037v2.79c0 .57.56 1.036 1.25 1.036h3.366c.69 0 1.251-.465 1.251-1.037v-2.79c0-.571-.561-1.036-1.25-1.036zm6.833 0h-3.366c-.69 0-1.251.465-1.251 1.037v2.79c0 .57.561 1.036 1.25 1.036h3.367c.69 0 1.25-.465 1.25-1.037v-2.79c0-.571-.56-1.036-1.25-1.036zm6.832 0h-3.366c-.69 0-1.25.465-1.25 1.037v2.79c0 .57.56 1.036 1.25 1.036h3.366c.69 0 1.25-.465 1.25-1.037v-2.79c0-.571-.56-1.036-1.25-1.036zm6.832 0H30.15c-.69 0-1.25.465-1.25 1.037v2.79c0 .57.56 1.036 1.25 1.036h3.366c.69 0 1.251-.465 1.251-1.037v-2.79c0-.571-.56-1.036-1.25-1.036zm6.833 0h-3.366c-.69 0-1.251.465-1.251 1.037v2.79c0 .57.561 1.036 1.25 1.036h3.367c.69 0 1.25-.465 1.25-1.037v-2.79c0-.571-.56-1.036-1.25-1.036zm-27.33 5.834H9.652c-.69 0-1.25.465-1.25 1.037v2.79c0 .57.56 1.036 1.25 1.036h3.366c.69 0 1.251-.465 1.251-1.037v-2.79c0-.571-.561-1.036-1.25-1.036zm6.833 0h-3.366c-.69 0-1.251.465-1.251 1.037v2.79c0 .57.561 1.036 1.25 1.036h3.367c.69 0 1.25-.465 1.25-1.037v-2.79c0-.571-.56-1.036-1.25-1.036zm6.832 0h-3.366c-.69 0-1.25.465-1.25 1.037v2.79c0 .57.56 1.036 1.25 1.036h3.366c.69 0 1.25-.465 1.25-1.037v-2.79c0-.571-.56-1.036-1.25-1.036z"/>
        </clipPath>
    </defs>
    <g>
        <g>
            <path fill="none"
                  d="M47.5 8.17v33.362c0 1.249-1.23 2.264-2.74 2.264H5.234c-1.507 0-2.734-1.015-2.734-2.264V8.172c0-1.25 1.227-2.267 2.734-2.267h1.472c.85 0 1.544.574 1.544 1.28v.984c0 1.38 1.35 2.501 3.012 2.501.872 0 1.7-.317 2.268-.87.291-.282.716-.444 1.165-.444.452-.001.873.16 1.165.443.571.553 1.398.871 2.27.871.874 0 1.701-.318 2.27-.87.287-.28.705-.44 1.147-.442.456 0 .894.164 1.197.454.571.545 1.391.858 2.25.858.874 0 1.702-.318 2.273-.872.291-.282.715-.444 1.165-.444.449 0 .874.161 1.164.444.571.554 1.397.872 2.266.872.874 0 1.703-.318 2.276-.873.29-.282.714-.443 1.163-.443h.001c.45 0 .874.162 1.165.445.57.553 1.395.871 2.265.871 1.661 0 3.012-1.122 3.012-2.5v-.985c0-.706.693-1.28 1.545-1.28h1.47c1.512 0 2.741 1.016 2.741 2.264zm-3.04 7.353c0-.802-.882-1.455-1.965-1.455H7.502c-1.082 0-1.962.653-1.962 1.455v23.886c0 .805.88 1.46 1.962 1.46h34.993c1.083 0 1.965-.655 1.965-1.46zm-8.011-7.354V4.302c0-1.026 1.046-1.892 2.284-1.892 1.26 0 2.286.849 2.286 1.892V8.17c0 1.049-1.026 1.902-2.286 1.902s-2.284-.853-2.284-1.902zm-6.867 0V4.302c0-1.043 1.023-1.892 2.28-1.892 1.263 0 2.29.849 2.29 1.892V8.17c0 1.049-1.027 1.902-2.29 1.902-1.257 0-2.28-.853-2.28-1.902zm-13.732 0V4.302c0-1.043 1.021-1.892 2.277-1.892 1.263 0 2.29.849 2.29 1.892V8.17c0 1.049-1.027 1.902-2.29 1.902-1.256 0-2.277-.853-2.277-1.902zm-6.869 0V4.302c0-1.043 1.023-1.892 2.28-1.892 1.263 0 2.29.849 2.29 1.892V8.17c0 1.049-1.027 1.902-2.29 1.902-1.257 0-2.28-.853-2.28-1.902zm13.736 0V4.302c0-1.026 1.044-1.892 2.28-1.892 1.26 0 2.286.849 2.286 1.892V8.17c0 1.049-1.025 1.902-2.286 1.902-1.257 0-2.28-.853-2.28-1.902zm-1.615 9.153v2.79c0 .571-.562 1.037-1.251 1.037h-3.366c-.69 0-1.251-.466-1.251-1.037v-2.79c0-.571.561-1.037 1.25-1.037h3.367c.69 0 1.25.466 1.25 1.037zm6.832 0v2.79c0 .571-.562 1.037-1.251 1.037h-3.366c-.69 0-1.25-.466-1.25-1.037v-2.79c0-.571.56-1.037 1.25-1.037h3.366c.69 0 1.25.466 1.25 1.037zm6.832 0v2.79c0 .571-.56 1.037-1.25 1.037h-3.367c-.69 0-1.25-.466-1.25-1.037v-2.79c0-.571.56-1.037 1.25-1.037h3.366c.69 0 1.251.466 1.251 1.037zm6.832 0v2.79c0 .571-.56 1.037-1.25 1.037h-3.366c-.69 0-1.251-.466-1.251-1.037v-2.79c0-.571.561-1.037 1.25-1.037h3.367c.69 0 1.25.466 1.25 1.037zM14.27 23.156v2.79c0 .572-.561 1.037-1.25 1.037H9.651c-.69 0-1.25-.465-1.25-1.037v-2.79c0-.571.56-1.036 1.25-1.036h3.366c.69 0 1.251.465 1.251 1.036zm6.833 0v2.79c0 .572-.562 1.037-1.251 1.037h-3.366c-.69 0-1.251-.465-1.251-1.037v-2.79c0-.571.561-1.036 1.25-1.036h3.367c.69 0 1.25.465 1.25 1.036zm6.832 0v2.79c0 .572-.562 1.037-1.251 1.037h-3.366c-.69 0-1.25-.465-1.25-1.037v-2.79c0-.571.56-1.036 1.25-1.036h3.366c.69 0 1.25.465 1.25 1.036zm6.832 0v2.79c0 .572-.56 1.037-1.25 1.037h-3.367c-.69 0-1.25-.465-1.25-1.037v-2.79c0-.571.56-1.036 1.25-1.036h3.366c.69 0 1.251.465 1.251 1.036zm6.832 0v2.79c0 .572-.56 1.037-1.25 1.037h-3.366c-.69 0-1.251-.465-1.251-1.037v-2.79c0-.571.561-1.036 1.25-1.036h3.367c.69 0 1.25.465 1.25 1.036zM14.27 28.991v2.79c0 .57-.561 1.036-1.25 1.036H9.651c-.69 0-1.25-.465-1.25-1.037v-2.79c0-.571.56-1.036 1.25-1.036h3.366c.69 0 1.251.465 1.251 1.037zm6.833 0v2.79c0 .57-.562 1.036-1.251 1.036h-3.366c-.69 0-1.251-.465-1.251-1.037v-2.79c0-.571.561-1.036 1.25-1.036h3.367c.69 0 1.25.465 1.25 1.037zm6.832 0v2.79c0 .57-.562 1.036-1.251 1.036h-3.366c-.69 0-1.25-.465-1.25-1.037v-2.79c0-.571.56-1.036 1.25-1.036h3.366c.69 0 1.25.465 1.25 1.037zm6.832 0v2.79c0 .57-.56 1.036-1.25 1.036h-3.367c-.69 0-1.25-.465-1.25-1.037v-2.79c0-.571.56-1.036 1.25-1.036h3.366c.69 0 1.251.465 1.251 1.037zm6.832 0v2.79c0 .57-.56 1.036-1.25 1.036h-3.366c-.69 0-1.251-.465-1.251-1.037v-2.79c0-.571.561-1.036 1.25-1.036h3.367c.69 0 1.25.465 1.25 1.037zM14.27 34.825v2.79c0 .57-.561 1.036-1.25 1.036H9.651c-.69 0-1.25-.465-1.25-1.037v-2.79c0-.571.56-1.036 1.25-1.036h3.366c.69 0 1.251.465 1.251 1.037zm6.833 0v2.79c0 .57-.562 1.036-1.251 1.036h-3.366c-.69 0-1.251-.465-1.251-1.037v-2.79c0-.571.561-1.036 1.25-1.036h3.367c.69 0 1.25.465 1.25 1.037zm6.832 0v2.79c0 .57-.562 1.036-1.251 1.036h-3.366c-.69 0-1.25-.465-1.25-1.037v-2.79c0-.571.56-1.036 1.25-1.036h3.366c.69 0 1.25.465 1.25 1.037z"/>
            <path fill="none" stroke="#b8b9cc" stroke-linecap="round" stroke-linejoin="round" stroke-miterlimit="20"
                  stroke-width="4"
                  d="M47.5 8.17v33.362c0 1.249-1.23 2.264-2.74 2.264H5.234c-1.507 0-2.734-1.015-2.734-2.264V8.172c0-1.25 1.227-2.267 2.734-2.267h1.472c.85 0 1.544.574 1.544 1.28v.984c0 1.38 1.35 2.501 3.012 2.501.872 0 1.7-.317 2.268-.87.291-.282.716-.444 1.165-.444.452-.001.873.16 1.165.443.571.553 1.398.871 2.27.871.874 0 1.701-.318 2.27-.87.287-.28.705-.44 1.147-.442.456 0 .894.164 1.197.454.571.545 1.391.858 2.25.858.874 0 1.702-.318 2.273-.872.291-.282.715-.444 1.165-.444.449 0 .874.161 1.164.444.571.554 1.397.872 2.266.872.874 0 1.703-.318 2.276-.873.29-.282.714-.443 1.163-.443h.001c.45 0 .874.162 1.165.445.57.553 1.395.871 2.265.871 1.661 0 3.012-1.122 3.012-2.5v-.985c0-.706.693-1.28 1.545-1.28h1.47c1.512 0 2.741 1.016 2.741 2.264zm-3.04 7.353c0-.802-.882-1.455-1.965-1.455H7.502c-1.082 0-1.962.653-1.962 1.455v23.886c0 .805.88 1.46 1.962 1.46h34.993c1.083 0 1.965-.655 1.965-1.46zm-8.011-7.354V4.302c0-1.026 1.046-1.892 2.284-1.892 1.26 0 2.286.849 2.286 1.892V8.17c0 1.049-1.026 1.902-2.286 1.902s-2.284-.853-2.284-1.902zm-6.867 0V4.302c0-1.043 1.023-1.892 2.28-1.892 1.263 0 2.29.849 2.29 1.892V8.17c0 1.049-1.027 1.902-2.29 1.902-1.257 0-2.28-.853-2.28-1.902zm-13.732 0V4.302c0-1.043 1.021-1.892 2.277-1.892 1.263 0 2.29.849 2.29 1.892V8.17c0 1.049-1.027 1.902-2.29 1.902-1.256 0-2.277-.853-2.277-1.902zm-6.869 0V4.302c0-1.043 1.023-1.892 2.28-1.892 1.263 0 2.29.849 2.29 1.892V8.17c0 1.049-1.027 1.902-2.29 1.902-1.257 0-2.28-.853-2.28-1.902zm13.736 0V4.302c0-1.026 1.044-1.892 2.28-1.892 1.26 0 2.286.849 2.286 1.892V8.17c0 1.049-1.025 1.902-2.286 1.902-1.257 0-2.28-.853-2.28-1.902zm-1.615 9.153v2.79c0 .571-.562 1.037-1.251 1.037h-3.366c-.69 0-1.251-.466-1.251-1.037v-2.79c0-.571.561-1.037 1.25-1.037h3.367c.69 0 1.25.466 1.25 1.037zm6.832 0v2.79c0 .571-.562 1.037-1.251 1.037h-3.366c-.69 0-1.25-.466-1.25-1.037v-2.79c0-.571.56-1.037 1.25-1.037h3.366c.69 0 1.25.466 1.25 1.037zm6.832 0v2.79c0 .571-.56 1.037-1.25 1.037h-3.367c-.69 0-1.25-.466-1.25-1.037v-2.79c0-.571.56-1.037 1.25-1.037h3.366c.69 0 1.251.466 1.251 1.037zm6.832 0v2.79c0 .571-.56 1.037-1.25 1.037h-3.366c-.69 0-1.251-.466-1.251-1.037v-2.79c0-.571.561-1.037 1.25-1.037h3.367c.69 0 1.25.466 1.25 1.037zM14.27 23.156v2.79c0 .572-.561 1.037-1.25 1.037H9.651c-.69 0-1.25-.465-1.25-1.037v-2.79c0-.571.56-1.036 1.25-1.036h3.366c.69 0 1.251.465 1.251 1.036zm6.833 0v2.79c0 .572-.562 1.037-1.251 1.037h-3.366c-.69 0-1.251-.465-1.251-1.037v-2.79c0-.571.561-1.036 1.25-1.036h3.367c.69 0 1.25.465 1.25 1.036zm6.832 0v2.79c0 .572-.562 1.037-1.251 1.037h-3.366c-.69 0-1.25-.465-1.25-1.037v-2.79c0-.571.56-1.036 1.25-1.036h3.366c.69 0 1.25.465 1.25 1.036zm6.832 0v2.79c0 .572-.56 1.037-1.25 1.037h-3.367c-.69 0-1.25-.465-1.25-1.037v-2.79c0-.571.56-1.036 1.25-1.036h3.366c.69 0 1.251.465 1.251 1.036zm6.832 0v2.79c0 .572-.56 1.037-1.25 1.037h-3.366c-.69 0-1.251-.465-1.251-1.037v-2.79c0-.571.561-1.036 1.25-1.036h3.367c.69 0 1.25.465 1.25 1.036zM14.27 28.991v2.79c0 .57-.561 1.036-1.25 1.036H9.651c-.69 0-1.25-.465-1.25-1.037v-2.79c0-.571.56-1.036 1.25-1.036h3.366c.69 0 1.251.465 1.251 1.037zm6.833 0v2.79c0 .57-.562 1.036-1.251 1.036h-3.366c-.69 0-1.251-.465-1.251-1.037v-2.79c0-.571.561-1.036 1.25-1.036h3.367c.69 0 1.25.465 1.25 1.037zm6.832 0v2.79c0 .57-.562 1.036-1.251 1.036h-3.366c-.69 0-1.25-.465-1.25-1.037v-2.79c0-.571.56-1.036 1.25-1.036h3.366c.69 0 1.25.465 1.25 1.037zm6.832 0v2.79c0 .57-.56 1.036-1.25 1.036h-3.367c-.69 0-1.25-.465-1.25-1.037v-2.79c0-.571.56-1.036 1.25-1.036h3.366c.69 0 1.251.465 1.251 1.037zm6.832 0v2.79c0 .57-.56 1.036-1.25 1.036h-3.366c-.69 0-1.251-.465-1.251-1.037v-2.79c0-.571.561-1.036 1.25-1.036h3.367c.69 0 1.25.465 1.25 1.037zM14.27 34.825v2.79c0 .57-.561 1.036-1.25 1.036H9.651c-.69 0-1.25-.465-1.25-1.037v-2.79c0-.571.56-1.036 1.25-1.036h3.366c.69 0 1.251.465 1.251 1.037zm6.833 0v2.79c0 .57-.562 1.036-1.251 1.036h-3.366c-.69 0-1.251-.465-1.251-1.037v-2.79c0-.571.561-1.036 1.25-1.036h3.367c.69 0 1.25.465 1.25 1.037zm6.832 0v2.79c0 .57-.562 1.036-1.251 1.036h-3.366c-.69 0-1.25-.465-1.25-1.037v-2.79c0-.571.56-1.036 1.25-1.036h3.366c.69 0 1.25.465 1.25 1.037z"
                  clip-path="url(&quot;#tzsfa&quot;)"/>
        </g>
    </g>
</svg>
