<svg xmlns="http://www.w3.org/2000/svg" width="121.5" height="141" viewBox="0 0 243 282">
  <defs>
    <mask id="61kgb" width="2" height="2" x="-1" y="-1">
      <path fill="#fff" d="M91 98h54v64H91z"/>
      <path
        d="M145 112.163v35.672c0 7.81-6.412 14.164-14.294 14.164h-25.412C97.412 162 91 155.646 91 147.835v-35.672C91 104.353 97.412 98 105.294 98h25.412c7.882 0 14.294 6.354 14.294 14.164zm-3.177 35.672v-32h-10.88a4.753 4.753 0 0 1-4.473 3.148h-16.94a4.754 4.754 0 0 1-4.473-3.148h-10.88v32c0 6.075 4.987 11.017 11.117 11.017h25.412c6.13 0 11.117-4.942 11.117-11.017zm-47.647-35.672v.525h10.86c.02-.057.05-.108.073-.164.03-.077.066-.152.101-.227.091-.197.194-.384.309-.563.037-.058.072-.116.111-.172.155-.218.323-.424.511-.613.01-.01.017-.02.026-.03.208-.204.434-.388.676-.552.038-.025.08-.045.118-.07a4.736 4.736 0 0 1 1.442-.61c.085-.02.168-.044.254-.06.285-.052.575-.087.872-.087h16.941a4.8 4.8 0 0 1 .872.088c.087.015.17.04.256.06.2.049.395.108.586.18.082.033.163.064.243.1.21.094.412.203.606.326.041.026.085.048.126.075.24.163.465.346.672.55.012.011.021.025.033.037.185.186.352.389.504.605.04.057.076.116.114.175.115.179.217.365.307.56.035.075.07.15.102.229.023.055.053.106.073.163h10.86v-.525c0-6.074-4.988-11.016-11.118-11.016h-25.412c-6.13 0-11.118 4.942-11.118 11.016zm32.294.525h-16.94c-.876 0-1.589.706-1.589 1.574 0 .868.713 1.573 1.588 1.573h16.941c.876 0 1.589-.705 1.589-1.573s-.713-1.574-1.589-1.574z"/>
    </mask>
    <filter id="61kga" width="176" height="186" x="30" y="37" filterUnits="userSpaceOnUse">
      <feOffset in="SourceGraphic" result="FeOffset1050Out"/>
      <feGaussianBlur in="FeOffset1050Out" result="FeGaussianBlur1051Out" stdDeviation="20.4 20.4"/>
    </filter>
  </defs>
  <g>
    <g>
      <g>
        <path fill="#1f3f52" fill-opacity="0.039" d="M237.996 109.035L14.098 178.62.285-.001z"/>
      </g>
      <g>
        <path fill="#1f3f52" fill-opacity="0.129" d="M147.503 123.145l20.04 158.889-127.545-82.285z"/>
      </g>
      <g>
        <path fill="#1f3f52" fill-opacity="0.039" d="M202.448 123.388L189.99 223.685l-70.943-66.688z"/>
      </g>
      <g>
        <path fill="#1f3f52" fill-opacity="0.2" d="M54.555 44.407l30.067 102.68L27.836 46.18z"/>
      </g>
      <g>
        <path fill="#1f3f52" fill-opacity="0.071" d="M242.364 63.776l-63.17 25.22 26.732-52.128z"/>
      </g>
    </g>
    <g>
      <g filter="url(#61kga)">
        <path fill="none"
              d="M145 112.163v35.672c0 7.81-6.412 14.164-14.294 14.164h-25.412C97.412 162 91 155.646 91 147.835v-35.672C91 104.353 97.412 98 105.294 98h25.412c7.882 0 14.294 6.354 14.294 14.164zm-3.177 35.672v-32h-10.88a4.753 4.753 0 0 1-4.473 3.148h-16.94a4.754 4.754 0 0 1-4.473-3.148h-10.88v32c0 6.075 4.987 11.017 11.117 11.017h25.412c6.13 0 11.117-4.942 11.117-11.017zm-47.647-35.672v.525h10.86c.02-.057.05-.108.073-.164.03-.077.066-.152.101-.227.091-.197.194-.384.309-.563.037-.058.072-.116.111-.172.155-.218.323-.424.511-.613.01-.01.017-.02.026-.03.208-.204.434-.388.676-.552.038-.025.08-.045.118-.07a4.736 4.736 0 0 1 1.442-.61c.085-.02.168-.044.254-.06.285-.052.575-.087.872-.087h16.941a4.8 4.8 0 0 1 .872.088c.087.015.17.04.256.06.2.049.395.108.586.18.082.033.163.064.243.1.21.094.412.203.606.326.041.026.085.048.126.075.24.163.465.346.672.55.012.011.021.025.033.037.185.186.352.389.504.605.04.057.076.116.114.175.115.179.217.365.307.56.035.075.07.15.102.229.023.055.053.106.073.163h10.86v-.525c0-6.074-4.988-11.016-11.118-11.016h-25.412c-6.13 0-11.118 4.942-11.118 11.016zm32.294.525h-16.94c-.876 0-1.589.706-1.589 1.574 0 .868.713 1.573 1.588 1.573h16.941c.876 0 1.589-.705 1.589-1.573s-.713-1.574-1.589-1.574z"
              mask="url(&quot;#61kgb&quot;)"/>
        <path fill="#1cf18f" fill-opacity=".6"
              d="M145 112.163v35.672c0 7.81-6.412 14.164-14.294 14.164h-25.412C97.412 162 91 155.646 91 147.835v-35.672C91 104.353 97.412 98 105.294 98h25.412c7.882 0 14.294 6.354 14.294 14.164zm-3.177 35.672v-32h-10.88a4.753 4.753 0 0 1-4.473 3.148h-16.94a4.754 4.754 0 0 1-4.473-3.148h-10.88v32c0 6.075 4.987 11.017 11.117 11.017h25.412c6.13 0 11.117-4.942 11.117-11.017zm-47.647-35.672v.525h10.86c.02-.057.05-.108.073-.164.03-.077.066-.152.101-.227.091-.197.194-.384.309-.563.037-.058.072-.116.111-.172.155-.218.323-.424.511-.613.01-.01.017-.02.026-.03.208-.204.434-.388.676-.552.038-.025.08-.045.118-.07a4.736 4.736 0 0 1 1.442-.61c.085-.02.168-.044.254-.06.285-.052.575-.087.872-.087h16.941a4.8 4.8 0 0 1 .872.088c.087.015.17.04.256.06.2.049.395.108.586.18.082.033.163.064.243.1.21.094.412.203.606.326.041.026.085.048.126.075.24.163.465.346.672.55.012.011.021.025.033.037.185.186.352.389.504.605.04.057.076.116.114.175.115.179.217.365.307.56.035.075.07.15.102.229.023.055.053.106.073.163h10.86v-.525c0-6.074-4.988-11.016-11.118-11.016h-25.412c-6.13 0-11.118 4.942-11.118 11.016zm32.294.525h-16.94c-.876 0-1.589.706-1.589 1.574 0 .868.713 1.573 1.588 1.573h16.941c.876 0 1.589-.705 1.589-1.573s-.713-1.574-1.589-1.574z"/>
      </g>
      <path fill="#39b276"
            d="M145 112.163v35.672c0 7.81-6.412 14.164-14.294 14.164h-25.412C97.412 162 91 155.646 91 147.835v-35.672C91 104.353 97.412 98 105.294 98h25.412c7.882 0 14.294 6.354 14.294 14.164zm-3.177 35.672v-32h-10.88a4.753 4.753 0 0 1-4.473 3.148h-16.94a4.754 4.754 0 0 1-4.473-3.148h-10.88v32c0 6.075 4.987 11.017 11.117 11.017h25.412c6.13 0 11.117-4.942 11.117-11.017zm-47.647-35.672v.525h10.86c.02-.057.05-.108.073-.164.03-.077.066-.152.101-.227.091-.197.194-.384.309-.563.037-.058.072-.116.111-.172.155-.218.323-.424.511-.613.01-.01.017-.02.026-.03.208-.204.434-.388.676-.552.038-.025.08-.045.118-.07a4.736 4.736 0 0 1 1.442-.61c.085-.02.168-.044.254-.06.285-.052.575-.087.872-.087h16.941a4.8 4.8 0 0 1 .872.088c.087.015.17.04.256.06.2.049.395.108.586.18.082.033.163.064.243.1.21.094.412.203.606.326.041.026.085.048.126.075.24.163.465.346.672.55.012.011.021.025.033.037.185.186.352.389.504.605.04.057.076.116.114.175.115.179.217.365.307.56.035.075.07.15.102.229.023.055.053.106.073.163h10.86v-.525c0-6.074-4.988-11.016-11.118-11.016h-25.412c-6.13 0-11.118 4.942-11.118 11.016zm32.294.525h-16.94c-.876 0-1.589.706-1.589 1.574 0 .868.713 1.573 1.588 1.573h16.941c.876 0 1.589-.705 1.589-1.573s-.713-1.574-1.589-1.574z"/>
    </g>
  </g>
</svg>
