<svg xmlns="http://www.w3.org/2000/svg" width="23" height="23" viewBox="0 0 46 46"><defs><linearGradient id="x1vha" x1="23.17" x2="22.37" y1="45.39" y2=".66" gradientUnits="userSpaceOnUse"><stop offset="0" stop-color="#d8594b"/><stop offset="1" stop-color="#a23020"/></linearGradient></defs><g><g><path fill="#babac7" d="M.37 11.634v-.905c.356-.434.726-.857 1.061-1.306.121-.163.21-.384.223-.585.102-1.418.172-2.837.27-4.254.025-.354-.066-.578-.44-.657-.61-.131-.748-.546-.58-1.076.17-.532-.018-1.286.98-1.286 2.958.001 5.915-.067 8.873-.085.288-.001.724.053.84.237.405.64 1.012.595 1.61.607 1 .019 2.002-.018 3.001.02a2.704 2.704 0 0 0 1.594-.43c.53-.33 1.081-.782 1.66-.841a18.038 18.038 0 0 1 3.711-.002c1.204.127 2.387.466 3.57.75.171.04.276.308.44.436.19.149.426.386.614.363.957-.12 1.923-.276 2.289-1.385.175-.531.574-.624 1.092-.55 1.85.26 3.703.492 5.554.744.866.12 1.857.046 2.05 1.422.28-.366.42-.606.617-.786.209-.193.478-.47.71-.46 1.149.045 2.314.08 3.432.315.468.098.9.636 1.2 1.074.087.126-.337.6-.533.91-.057.091-.14.167-.198.257-.452.694-.32 1.19.357 1.66.2.137.38.432.4.67.084.985.1 1.977.148 2.965.084 1.719.172 3.437.259 5.154v.26c-.202.19-.4.389-.607.573-.653.577-1.085 1.224-.799 2.153.047.15.012.4-.09.507-.717.745-.829.919-.176 1.622.855.922.982 1.939.85 3.083a8.812 8.812 0 0 0-.037 1.223c.013.53.025.993-.663 1.192-.168.049-.188.601-.276.923.24.055.483.164.72.154.361-.015.719-.112 1.078-.174v3.494c-.04.34-.103.68-.116 1.02-.098 2.584-.18 5.169-.28 7.753-.06 1.507-.154 3.013-.217 4.52-.02.52-.261.518-.683.403-.684-.187-1.38-.356-2.082-.433-.65-.07-1.252.077-1.229.963-1.616-.044-3.191.187-4.677-.52-.541-.256-1.083-.168-1.638.07-.428.182-.909.325-1.37.339-2.088.058-4.177.082-6.265.076-.682-.003-1.142.217-1.5.801-.66 1.072-1.25 1.032-1.855-.078-.382-.704-1.741-.94-2.355-.452a5.466 5.466 0 0 1-1.262.77c-.392.166-.804-.006-.806-.468-.003-.842-.53-1.023-1.188-1.036-2.87-.054-5.742-.071-8.612-.134-1.254-.028-2.506-.148-3.76-.202a13.252 13.252 0 0 0-1.547.035c-.3.022-.594.134-.895.174-1.208.16-2.155-.656-2.107-1.83.083-2.045.173-4.09.286-6.134.017-.308.076-.732.281-.889.527-.403.577-.921.598-1.488.04-1.098.098-2.196.113-3.295.003-.196-.121-.517-.266-.57-.675-.251-.742-.745-.7-1.344.032-.472.025-.95.002-1.422-.056-1.16.036-2.273.718-3.282.2-.296.295-.67.404-1.02.245-.784.198-.921-.596-1.077-.523-.104-.616-.36-.557-.804.168-1.238.353-2.475.47-3.717.034-.352-.11-.73-.223-1.08-.203-.624-.497-1.222-.655-1.854-.145-.577-.162-1.186-.235-1.78zm34.146 25.148c.695-.039 1.392-.055 2.084-.12 1.096-.103 1.188-.2 1.384-1.253.328-1.758.612-3.526.994-5.272.248-1.137-.05-1.867-1.058-2.548-8.163-5.508-16.287-11.073-24.428-16.614-1.13-.769-2.256-1.548-3.437-2.23-.434-.25-1.033-.356-1.54-.317-.616.05-1.213.319-1.819.495-.437.127-.504.385-.22.714.382.442.78.87 1.181 1.294 7.644 8.088 15.312 16.152 22.91 24.283 1.136 1.216 2.243 1.996 3.949 1.568zm-25.09-9.577c-.197.39-.372.686-.498 1-.71 1.76-1.415 3.522-2.107 5.289-.402 1.026-.392 1.034.465 1.787.407.357.852.676 1.23 1.06 1.075 1.09 2.436 1.474 3.901 1.532a3.321 3.321 0 0 0 1.558-.316c1.047-.52 2.044-1.142 3.05-1.742.933-.557.944-.587.135-1.363-2.094-2.01-4.203-4.002-6.313-5.996-.436-.412-.9-.794-1.422-1.25zM27.904 10.5l-.125.266c.335.265.673.528 1.005.799 1.978 1.613 3.957 3.226 5.93 4.846.417.345.6.184.71-.26.447-1.796.91-3.588 1.331-5.39.045-.19-.077-.516-.235-.641a13.757 13.757 0 0 0-1.756-1.221c-.265-.152-.67-.224-.96-.148-1.743.455-3.47.96-5.2 1.459-.242.07-.467.191-.7.29z"/><path fill="url(#x1vha)" d="M.37 11.634v-.905c.356-.434.726-.857 1.061-1.306.121-.163.21-.384.223-.585.102-1.418.172-2.837.27-4.254.025-.354-.066-.578-.44-.657-.61-.131-.748-.546-.58-1.076.17-.532-.018-1.286.98-1.286 2.958.001 5.915-.067 8.873-.085.288-.001.724.053.84.237.405.64 1.012.595 1.61.607 1 .019 2.002-.018 3.001.02a2.704 2.704 0 0 0 1.594-.43c.53-.33 1.081-.782 1.66-.841a18.038 18.038 0 0 1 3.711-.002c1.204.127 2.387.466 3.57.75.171.04.276.308.44.436.19.149.426.386.614.363.957-.12 1.923-.276 2.289-1.385.175-.531.574-.624 1.092-.55 1.85.26 3.703.492 5.554.744.866.12 1.857.046 2.05 1.422.28-.366.42-.606.617-.786.209-.193.478-.47.71-.46 1.149.045 2.314.08 3.432.315.468.098.9.636 1.2 1.074.087.126-.337.6-.533.91-.057.091-.14.167-.198.257-.452.694-.32 1.19.357 1.66.2.137.38.432.4.67.084.985.1 1.977.148 2.965.084 1.719.172 3.437.259 5.154v.26c-.202.19-.4.389-.607.573-.653.577-1.085 1.224-.799 2.153.047.15.012.4-.09.507-.717.745-.829.919-.176 1.622.855.922.982 1.939.85 3.083a8.812 8.812 0 0 0-.037 1.223c.013.53.025.993-.663 1.192-.168.049-.188.601-.276.923.24.055.483.164.72.154.361-.015.719-.112 1.078-.174v3.494c-.04.34-.103.68-.116 1.02-.098 2.584-.18 5.169-.28 7.753-.06 1.507-.154 3.013-.217 4.52-.02.52-.261.518-.683.403-.684-.187-1.38-.356-2.082-.433-.65-.07-1.252.077-1.229.963-1.616-.044-3.191.187-4.677-.52-.541-.256-1.083-.168-1.638.07-.428.182-.909.325-1.37.339-2.088.058-4.177.082-6.265.076-.682-.003-1.142.217-1.5.801-.66 1.072-1.25 1.032-1.855-.078-.382-.704-1.741-.94-2.355-.452a5.466 5.466 0 0 1-1.262.77c-.392.166-.804-.006-.806-.468-.003-.842-.53-1.023-1.188-1.036-2.87-.054-5.742-.071-8.612-.134-1.254-.028-2.506-.148-3.76-.202a13.252 13.252 0 0 0-1.547.035c-.3.022-.594.134-.895.174-1.208.16-2.155-.656-2.107-1.83.083-2.045.173-4.09.286-6.134.017-.308.076-.732.281-.889.527-.403.577-.921.598-1.488.04-1.098.098-2.196.113-3.295.003-.196-.121-.517-.266-.57-.675-.251-.742-.745-.7-1.344.032-.472.025-.95.002-1.422-.056-1.16.036-2.273.718-3.282.2-.296.295-.67.404-1.02.245-.784.198-.921-.596-1.077-.523-.104-.616-.36-.557-.804.168-1.238.353-2.475.47-3.717.034-.352-.11-.73-.223-1.08-.203-.624-.497-1.222-.655-1.854-.145-.577-.162-1.186-.235-1.78zm34.146 25.148c.695-.039 1.392-.055 2.084-.12 1.096-.103 1.188-.2 1.384-1.253.328-1.758.612-3.526.994-5.272.248-1.137-.05-1.867-1.058-2.548-8.163-5.508-16.287-11.073-24.428-16.614-1.13-.769-2.256-1.548-3.437-2.23-.434-.25-1.033-.356-1.54-.317-.616.05-1.213.319-1.819.495-.437.127-.504.385-.22.714.382.442.78.87 1.181 1.294 7.644 8.088 15.312 16.152 22.91 24.283 1.136 1.216 2.243 1.996 3.949 1.568zm-25.09-9.577c-.197.39-.372.686-.498 1-.71 1.76-1.415 3.522-2.107 5.289-.402 1.026-.392 1.034.465 1.787.407.357.852.676 1.23 1.06 1.075 1.09 2.436 1.474 3.901 1.532a3.321 3.321 0 0 0 1.558-.316c1.047-.52 2.044-1.142 3.05-1.742.933-.557.944-.587.135-1.363-2.094-2.01-4.203-4.002-6.313-5.996-.436-.412-.9-.794-1.422-1.25zM27.904 10.5l-.125.266c.335.265.673.528 1.005.799 1.978 1.613 3.957 3.226 5.93 4.846.417.345.6.184.71-.26.447-1.796.91-3.588 1.331-5.39.045-.19-.077-.516-.235-.641a13.757 13.757 0 0 0-1.756-1.221c-.265-.152-.67-.224-.96-.148-1.743.455-3.47.96-5.2 1.459-.242.07-.467.191-.7.29z"/></g></g></svg>