<svg xmlns="http://www.w3.org/2000/svg" width="21.5" height="21" viewBox="0 0 43 42">
    <defs>
        <clipPath id="xki4a">
            <path fill="#fff"
                  d="M0 40V3h39v37zm13.119-7.78h13.224l1.824 5.015h8.664L24.29 5.315h-9.12L2.63 37.235h8.664zm6.612-19.29c.182 1.125.456 2.205.82 3.238l3.284 9.211h-8.208l3.283-9.21c.365-1.034.639-2.114.82-3.238z"/>
        </clipPath>
    </defs>
    <g>
        <g>
            <g>
                <path fill="none"
                      d="M11.295 37.235H2.63l12.54-31.92h9.12l12.54 31.92h-8.664l-1.824-5.016H13.119zM19.73 12.93a18.683 18.683 0 0 1-.821 3.238l-3.283 9.211h8.208l-3.283-9.21a18.703 18.703 0 0 1-.821-3.239z"/>
                <path fill="none" stroke="#b8b9cc" stroke-linecap="round" stroke-linejoin="round" stroke-miterlimit="20"
                      stroke-width="4"
                      d="M11.295 37.235H2.63l12.54-31.92h9.12l12.54 31.92h-8.664l-1.824-5.016H13.119zM19.73 12.93a18.683 18.683 0 0 1-.821 3.238l-3.283 9.211h8.208l-3.283-9.21a18.703 18.703 0 0 1-.821-3.239z"
                      clip-path="url(&quot;#xki4a&quot;)"/>
            </g>
            <g>
                <path fill="#fff" d="M42.605.3h-2.69v41.495h2.69z"/>
            </g>
        </g>
    </g>
</svg>
