<svg xmlns="http://www.w3.org/2000/svg" width="97.5" height="79" viewBox="0 0 195 158"><g><g><path fill="#47cfb7" d="M195 116.92v18.96c0 1.744-1.41 3.16-3.145 3.16h-3.145V158h-6.29v-18.96H12.58V158H6.29v-18.96H3.145A3.154 3.154 0 0 1 0 135.88v-18.96a3.154 3.154 0 0 1 3.145-3.16h15.726V60.04a3.154 3.154 0 0 1 3.145-3.16h34.597V3.16A3.154 3.154 0 0 1 59.758 0h75.484a3.154 3.154 0 0 1 3.145 3.16v53.72h34.597a3.154 3.154 0 0 1 3.145 3.16v53.72h15.726a3.154 3.154 0 0 1 3.145 3.16zM169.839 63.2h-25.162v28.44a3.154 3.154 0 0 1-3.145 3.16h-12.58a3.154 3.154 0 0 1-3.146-3.16V63.2h-25.161v50.56h69.194zm-37.742 0v25.28h6.29V63.2zM94.355 31.6h6.29V6.32h-6.29zM62.903 56.88h69.194V6.32h-25.162v28.44c0 1.744-1.409 3.16-3.145 3.16H91.21a3.154 3.154 0 0 1-3.146-3.16V6.32h-25.16zm-6.29 31.6h6.29V63.2h-6.29zM25.16 113.76h69.194V63.2H69.193v28.44a3.154 3.154 0 0 1-3.145 3.16h-12.58a3.154 3.154 0 0 1-3.146-3.16V63.2h-25.16zm163.549 6.32H6.29v12.64h182.42z"/></g></g></svg>