<svg xmlns="http://www.w3.org/2000/svg" width="69.5" height="72.5" viewBox="0 0 139 145"><g><g><path fill="#47cfb7" d="M138.831 141.38a2.804 2.804 0 0 1-.414 2.485 2.78 2.78 0 0 1-2.24 1.135H2.803a2.77 2.77 0 0 1-2.236-1.135 2.795 2.795 0 0 1-.415-2.485l8.034-25.796c3.873-12.442 14.668-21.76 27.508-23.743l14.346-2.214v-3.185a2.783 2.783 0 0 1 2.779-2.788 2.783 2.783 0 0 1 2.779 2.788v4.423l13.893 13.942 13.893-13.942v-4.423a2.783 2.783 0 0 1 2.779-2.788 2.783 2.783 0 0 1 2.779 2.788v3.185l14.346 2.214c12.837 1.982 23.635 11.301 27.509 23.743zm-65.276-32.767L89.8 122.876l4.449-26.788-7.116-1.1zm1.96 20.897l4.934-7.431-10.96-9.623-10.958 9.623 4.935 7.431c.433.655.572 1.461.383 2.222l-1.914 7.69h15.11l-1.914-7.69a2.792 2.792 0 0 1 .383-2.222zm-10.09-20.897L51.848 94.99l-7.116 1.099 4.449 26.788zM6.58 139.423h21.554l2.476-19.865a2.784 2.784 0 0 1 3.1-2.42 2.786 2.786 0 0 1 2.413 3.111l-2.387 19.174h22.468l1.956-7.844-3.848-5.794-5.221 4.584a2.783 2.783 0 0 1-1.831.689 2.786 2.786 0 0 1-2.74-2.331l-5.28-31.792-2.703.418c-10.756 1.662-19.806 9.473-23.05 19.893zm125.818 0l-6.908-22.177c-3.246-10.423-12.293-18.23-23.05-19.893l-2.703-.418-5.279 31.791a2.781 2.781 0 0 1-2.74 2.332 2.77 2.77 0 0 1-1.828-.69l-5.221-4.583-3.849 5.794 1.954 7.844h22.468l-2.387-19.174a2.783 2.783 0 0 1 2.412-3.111 2.784 2.784 0 0 1 3.1 2.42l2.477 19.865zM22.956.934c.036-.042.089-.056.128-.095.041-.042.058-.097.103-.136.122-.11.272-.154.405-.238.142-.089.27-.186.425-.248.228-.092.459-.122.698-.15.108-.011.205-.067.317-.067h88.916c.112 0 .209.056.317.067.24.028.47.061.698.15.155.062.283.16.425.248.133.084.283.129.405.238.045.039.062.094.103.136.04.04.092.053.128.095l22.23 25.096a2.793 2.793 0 0 1-.2 3.907L71.378 91.269l-.014.014c-.038.036-.091.05-.133.084-.175.145-.367.259-.572.356-.07.034-.13.087-.203.115l-.017.011c-.016.008-.036.005-.055.011a2.777 2.777 0 0 1-.895.16c-.308 0-.609-.062-.897-.157-.02-.009-.037-.006-.056-.011-.006-.003-.011-.009-.017-.011-.072-.028-.133-.081-.203-.115a2.841 2.841 0 0 1-.572-.357c-.042-.033-.092-.047-.133-.083l-.014-.014L.924 29.94a2.793 2.793 0 0 1-.2-3.907zM8.99 25.096h32.083L25.032 6.985zM113.95 6.985L97.906 25.096h7.706a2.783 2.783 0 0 1 2.778 2.788 2.783 2.783 0 0 1-2.778 2.789H93.667L75.981 79.477l53.053-48.804h-12.307a2.783 2.783 0 0 1-2.779-2.789 2.783 2.783 0 0 1 2.78-2.788h13.262zM85.53 25.096L69.49 6.985 53.449 25.096zM51.23 30.673l18.26 50.396 18.262-50.396zm-5.913 0H9.946L63 79.477zm62.447-25.096H75.678l16.041 18.11zm-44.458 0H31.22l16.04 18.11z"/></g></g></svg>