<svg xmlns="http://www.w3.org/2000/svg" width="83" height="81.5" viewBox="0 0 166 163"><g><g><path fill="#47cfb7" d="M118.571 36.806h28.984V57.84h-5.27v78.87c0 4.349-3.546 7.888-7.904 7.888H34.254c-4.358 0-7.905-3.54-7.905-7.887V57.839h-5.27V36.806h28.984v-7.81c0-5.84 4.764-10.593 10.616-10.593h.438c1.847 0 3.668.484 5.27 1.396l16.3 9.294a7.947 7.947 0 0 1 1.63-.174c.559 0 1.104.063 1.634.174l16.3-9.294a10.655 10.655 0 0 1 5.267-1.396h.437c5.852 0 10.616 4.753 10.616 10.593zM90.84 32.361a7.833 7.833 0 0 1 1.383 4.445c0 1.751-.595 3.355-1.565 4.667l14.19 10.114c.913.65 1.986.994 3.108.994 2.949 0 5.347-2.393 5.347-5.337V28.996c0-2.942-2.398-5.335-5.347-5.335h-.437c-.93 0-1.847.242-2.653.702zm4.018 70.171h42.159V92.016H94.857zm-63.238 0h42.159V92.016h-42.16zM78.128 47.83l-4.585 3.268-.208.313-15.459 24.242 16.239-1.8zm4.6 4.75h3.18l-1.222-7.923c-.124.005-.242.036-.369.036-.126 0-.245-.031-.368-.036zm28.03 23.073l-15.69-24.571-4.561-3.252 4.013 26.022zm-26.44-41.476a2.635 2.635 0 0 0-2.635 2.63 2.635 2.635 0 0 0 5.27 0c0-1.45-1.181-2.63-2.636-2.63zm-28.985 13.07c0 2.941 2.398 5.334 5.346 5.334a5.335 5.335 0 0 0 3.11-.994L77.98 41.473c-.972-1.312-1.567-2.916-1.567-4.667 0-1.648.513-3.178 1.383-4.445L63.77 24.363a5.358 5.358 0 0 0-2.653-.702h-.438c-2.948 0-5.346 2.393-5.346 5.335zM26.35 52.58H51.56c-.927-1.573-1.497-3.381-1.497-5.335v-5.182H26.35zm5.27 5.258v28.919h42.159v-7.58L47.52 82.091l15.698-24.589c-.827.202-1.673.337-2.54.337-.026 0-.05-.008-.076-.008v.008zm42.159 81.5V107.79h-42.16v28.92a2.633 2.633 0 0 0 2.636 2.628zm15.81 0V76.446L86.72 57.839h-4.803l-2.87 18.608v62.891zm47.428-2.63V107.79H94.857v31.548h39.524a2.633 2.633 0 0 0 2.635-2.628zm0-78.87h-28.984v-.008c-.027 0-.05.008-.077.008-.861 0-1.702-.132-2.521-.334l15.68 24.584-26.257-2.91v7.579h42.159zM118.57 42.064v5.182c0 1.954-.569 3.762-1.496 5.335h25.21V42.064zM7.905 57.84h5.27v5.258h-5.27zm-5.27 5.258h5.27v5.258h-5.27zm5.27 5.258h5.27v5.258h-5.27zm5.27-5.258h5.27v5.258h-5.27zm142.285 84.129h5.27v5.258h-5.27zm-5.27 5.258h5.27v5.258h-5.27zm5.27 5.258h5.27V163h-5.27zm5.27-5.258H166v5.258h-5.27zM5.27 134.08h5.27v5.257H5.27zM0 139.338h5.27v5.259H0zm5.27 5.259h5.27v5.258H5.27zm5.27-5.259h5.27v5.259h-5.27zM155.46 84.13h5.27v5.258h-5.27zm-5.27 5.258h5.27v5.258h-5.27zm5.27 5.258h5.27v5.258h-5.27zm5.27-5.258H166v5.258h-5.27zM15.81 0h5.27v7.887h-5.27zM5.401 6.48L9.13 2.761l5.589 5.578-3.727 3.717zm-2.767 6.665h7.905v5.258H2.635zM5.402 25.07l5.59-5.576 3.726 3.718-5.59 5.576zm10.407-1.408h5.27v7.887h-5.27zm6.362-.451l3.726-3.718 5.59 5.578-3.728 3.717zm4.178-10.065h7.905v5.258h-7.905zm-4.18-4.808l5.59-5.577 3.727 3.718-5.59 5.577zM147.556 0h5.27v7.887h-5.27zM137.15 6.482l3.726-3.717 5.59 5.578-3.728 3.717zm-2.77 6.663h7.906v5.258h-7.905zm2.768 11.925l5.589-5.577 3.726 3.718-5.59 5.577zm10.407-1.409h5.27v7.887h-5.27zm6.363-.448l3.727-3.718 5.588 5.578-3.726 3.718zm4.177-10.068H166v5.258h-7.905zm-4.18-4.807l5.59-5.577 3.726 3.718-5.59 5.577z"/></g></g></svg>