<svg xmlns="http://www.w3.org/2000/svg" width="82.5" height="84" viewBox="0 0 165 168"><g><g><path fill="#47cfb7" d="M92.567 17.54l1.343-5.252c10.31 2.683 19.427 8.988 25.671 17.754l-4.36 3.165c-5.511-7.742-13.555-13.304-22.654-15.667zm-5.03-.968a40.471 40.471 0 0 0-5.037-.314v-5.42c1.908 0 3.828.12 5.702.358zm65.174 129.75L164.983 168h-50.266v-16.258H50.282V168H.016l12.272-21.678L.016 124.645h23.419v-16.258h35.208c-19.18-9.09-32.523-28.72-32.523-51.484C26.12 25.528 51.41 0 82.5 0c31.089 0 56.38 25.528 56.38 56.903 0 22.764-13.344 42.393-32.524 51.484h35.208v16.258h23.42zm-80.105-84L82.5 98.264l9.893-35.942zm17.585-5.419L82.5 47.587l-7.692 9.316zm-1.468 38.995l25.873-33.576H97.964zm26.345-38.995l-5.96-9.026-7.453 9.026zm-11.456-10.839h-15.38l7.691 9.316zm-26.847 0H61.384l7.692 9.316zM49.93 56.903h13.413l-7.453-9.026zm.472 5.42l25.873 33.575-9.24-33.576zm28.555 45.882l-37.353-48.47 12.61-19.09h56.568l12.61 19.09-37.352 48.47c26.474-1.848 47.469-24.121 47.469-51.302 0-28.39-22.882-51.484-51.01-51.484-28.129 0-51.01 23.095-51.01 51.484 0 27.181 20.994 49.454 47.468 51.302zm-50.153 5.601v32.516h107.39v-32.516zM9.268 162.581h30.275l-16.108-12.194v-20.323H9.268l9.205 16.258zm35.645-10.84H34.174l10.739 8.13zm75.173 0v8.13l10.74-8.13zm26.44-5.419l9.206-16.258h-14.168v20.323l-16.108 12.194h30.276zm-66.711-24.387h5.37v5.42h-5.37zm-5.37 5.42h5.37v5.419h-5.37zm5.37 5.419h5.37v5.42h-5.37zm5.37-5.42h5.369v5.42h-5.37zm29.532-5.419h5.37v5.42h-5.37zm-5.37 5.42h5.37v5.419h-5.37zm5.37 5.419h5.37v5.42h-5.37zm5.37-5.42h5.369v5.42h-5.37zm-75.174-5.419h5.37v5.42h-5.37zm-5.37 5.42h5.37v5.419h-5.37zm5.37 5.419h5.37v5.42h-5.37zm5.37-5.42h5.369v5.42h-5.37z"/></g></g></svg>