<?xml version="1.0" encoding="UTF-8"?>
<svg id="SVGDoc" width="27.5" height="20.5" xmlns="http://www.w3.org/2000/svg" version="1.1" viewBox="0 0 55 41">
    <defs>
        <clipPath id="ClipPath1169">
            <path d="M0,41v-41h55v41zM27.94595,12.83938c4.21054,0 7.62599,2.0391 7.62599,4.07349c0,2.03965 -3.41545,4.07349 -7.62599,4.07349c-4.21054,0 -7.62514,-2.03467 -7.62514,-4.07349c0,-2.03439 3.4146,-4.07349 7.62514,-4.07349zM50.78636,14.60245l-28.21503,17.79928l-17.65887,-7.91027l-2.15503,1.33227l19.81284,9.04624l30.37006,-19.13127zM50.78636,18.7147l-28.21503,17.79956l-17.65887,-7.90944l-2.15503,1.33144l19.81284,9.04596l30.37006,-19.1321zM33.12748,2.57771l-30.37006,19.13266l19.81284,9.04707l30.37006,-19.131z"
                  fill="#ffffff"></path>
        </clipPath>
    </defs>
    <desc>Generated with Avocode.</desc>
    <g>
        <g>
            <title>money icon</title>
            <path d="M27.94595,12.83938c4.21054,0 7.62599,2.0391 7.62599,4.07349c0,2.03965 -3.41545,4.07349 -7.62599,4.07349c-4.21054,0 -7.62514,-2.03467 -7.62514,-4.07349c0,-2.03439 3.4146,-4.07349 7.62514,-4.07349zM50.78636,14.60245l-28.21503,17.79928l-17.65887,-7.91027l-2.15503,1.33227l19.81284,9.04624l30.37006,-19.13127zM50.78636,18.7147l-28.21503,17.79956l-17.65887,-7.90944l-2.15503,1.33144l19.81284,9.04596l30.37006,-19.1321zM33.12748,2.57771l-30.37006,19.13266l19.81284,9.04707l30.37006,-19.131z"
                  fill="none" fill-opacity="1"></path>
            <path d="M27.94595,12.83938c4.21054,0 7.62599,2.0391 7.62599,4.07349c0,2.03965 -3.41545,4.07349 -7.62599,4.07349c-4.21054,0 -7.62514,-2.03467 -7.62514,-4.07349c0,-2.03439 3.4146,-4.07349 7.62514,-4.07349zM50.78636,14.60245l-28.21503,17.79928l-17.65887,-7.91027l-2.15503,1.33227l19.81284,9.04624l30.37006,-19.13127zM50.78636,18.7147l-28.21503,17.79956l-17.65887,-7.90944l-2.15503,1.33144l19.81284,9.04596l30.37006,-19.1321zM33.12748,2.57771l-30.37006,19.13266l19.81284,9.04707l30.37006,-19.131z"
                  fill-opacity="0" fill="#ffffff" stroke-linejoin="round" stroke-linecap="round" stroke-opacity="1"
                  stroke="#b8b9cc" stroke-miterlimit="20" stroke-width="4"
                  clip-path="url(&quot;#ClipPath1169&quot;)"></path>
        </g>
    </g>
</svg>
