<svg xmlns="http://www.w3.org/2000/svg" width="128.5" height="130" viewBox="0 0 257 260">
  <defs>
    <mask id="flyjb" width="2" height="2" x="-1" y="-1">
      <path fill="#fff" d="M91 77h71v72H91z"/>
      <path
        d="M161.974 113.432c0 19.573-15.924 35.497-35.497 35.497s-35.496-15.924-35.496-35.497c0-19.572 15.923-35.496 35.496-35.496s35.497 15.924 35.497 35.496zm-3.295 0c0-17.756-14.446-32.202-32.202-32.202s-32.202 14.446-32.202 32.202 14.446 32.202 32.202 32.202 32.202-14.446 32.202-32.202zm-30.32 0c0 .481-.194.96-.534 1.317-.386.37-.86.565-1.348.565-.48 0-.96-.194-1.316-.532-.37-.388-.565-.862-.565-1.35 0-.48.194-.96.531-1.316.751-.73 1.947-.737 2.675-.024l.01.01c.353.369.547.842.547 1.33zm-6.228 4.347c.355.355.552.827.552 1.33 0 .502-.197.975-.552 1.33a1.864 1.864 0 0 1-1.33.551c-.504 0-.976-.196-1.331-.552a9.841 9.841 0 0 1-2.902-7.006 9.843 9.843 0 0 1 2.903-7.006c.682-.683 1.978-.683 2.66 0 .355.355.552.828.552 1.331-.001.503-.198.975-.553 1.33a6.11 6.11 0 0 0-1.799 4.345c0 1.642.639 3.186 1.8 4.347zm11.354 2.66a1.867 1.867 0 0 1-1.331.551c-.504 0-.976-.196-1.332-.553a1.861 1.861 0 0 1-.55-1.329c0-.503.196-.975.552-1.33a6.153 6.153 0 0 0 0-8.692 1.863 1.863 0 0 1-.553-1.33c0-.503.196-.976.553-1.331.72-.72 1.938-.72 2.66 0 3.862 3.864 3.862 10.15 0 14.014zm-17.03 5.676a1.87 1.87 0 0 1-1.33.55 1.87 1.87 0 0 1-1.33-.55 17.816 17.816 0 0 1-5.254-12.683c0-4.79 1.866-9.294 5.253-12.683.683-.683 1.978-.683 2.66 0a1.883 1.883 0 0 1 0 2.66 14.088 14.088 0 0 0-4.15 10.023 14.08 14.08 0 0 0 4.152 10.022 1.883 1.883 0 0 1 0 2.66zm27.959-12.683c0 4.79-1.866 9.295-5.253 12.684-.358.355-.83.55-1.331.55-.504 0-.977-.196-1.331-.553a1.86 1.86 0 0 1-.552-1.329c0-.502.196-.975.553-1.331a14.08 14.08 0 0 0 4.15-10.02c0-3.785-1.474-7.345-4.151-10.022a1.87 1.87 0 0 1-.552-1.328c0-.504.196-.977.552-1.333a1.888 1.888 0 0 1 1.33-.537h.002c.503 0 .987.196 1.327.537a17.81 17.81 0 0 1 5.256 12.682z"/>
    </mask>
    <filter id="flyja" width="193" height="194" x="30" y="16" filterUnits="userSpaceOnUse">
      <feOffset in="SourceGraphic" result="FeOffset1097Out"/>
      <feGaussianBlur in="FeOffset1097Out" result="FeGaussianBlur1098Out" stdDeviation="20.4 20.4"/>
    </filter>
  </defs>
  <g>
    <g>
      <g>
        <path fill="#1f3f52" fill-opacity="0.039" d="M256.996 109.035L33.098 178.62 19.285-.001z"/>
      </g>
      <g>
        <path fill="#1f3f52" fill-opacity="0.129" d="M107.503 35.145l20.04 158.89L-.002 111.748z"/>
      </g>
      <g>
        <path fill="#1f3f52" fill-opacity="0.039" d="M202.448 112.387L189.99 212.685l-70.943-66.687z"/>
      </g>
      <g>
        <path fill="#1f3f52" fill-opacity="0.2" d="M172.555 15.407l30.067 102.68L145.836 17.18z"/>
      </g>
      <g>
        <path fill="#1f3f52" fill-opacity="0.071" d="M106.364 234.776l-63.17 25.219 26.732-52.127z"/>
      </g>
    </g>
    <g>
      <g filter="url(#flyja)">
        <path fill="none"
              d="M161.974 113.432c0 19.573-15.924 35.497-35.497 35.497s-35.496-15.924-35.496-35.497c0-19.572 15.923-35.496 35.496-35.496s35.497 15.924 35.497 35.496zm-3.295 0c0-17.756-14.446-32.202-32.202-32.202s-32.202 14.446-32.202 32.202 14.446 32.202 32.202 32.202 32.202-14.446 32.202-32.202zm-30.32 0c0 .481-.194.96-.534 1.317-.386.37-.86.565-1.348.565-.48 0-.96-.194-1.316-.532-.37-.388-.565-.862-.565-1.35 0-.48.194-.96.531-1.316.751-.73 1.947-.737 2.675-.024l.01.01c.353.369.547.842.547 1.33zm-6.228 4.347c.355.355.552.827.552 1.33 0 .502-.197.975-.552 1.33a1.864 1.864 0 0 1-1.33.551c-.504 0-.976-.196-1.331-.552a9.841 9.841 0 0 1-2.902-7.006 9.843 9.843 0 0 1 2.903-7.006c.682-.683 1.978-.683 2.66 0 .355.355.552.828.552 1.331-.001.503-.198.975-.553 1.33a6.11 6.11 0 0 0-1.799 4.345c0 1.642.639 3.186 1.8 4.347zm11.354 2.66a1.867 1.867 0 0 1-1.331.551c-.504 0-.976-.196-1.332-.553a1.861 1.861 0 0 1-.55-1.329c0-.503.196-.975.552-1.33a6.153 6.153 0 0 0 0-8.692 1.863 1.863 0 0 1-.553-1.33c0-.503.196-.976.553-1.331.72-.72 1.938-.72 2.66 0 3.862 3.864 3.862 10.15 0 14.014zm-17.03 5.676a1.87 1.87 0 0 1-1.33.55 1.87 1.87 0 0 1-1.33-.55 17.816 17.816 0 0 1-5.254-12.683c0-4.79 1.866-9.294 5.253-12.683.683-.683 1.978-.683 2.66 0a1.883 1.883 0 0 1 0 2.66 14.088 14.088 0 0 0-4.15 10.023 14.08 14.08 0 0 0 4.152 10.022 1.883 1.883 0 0 1 0 2.66zm27.959-12.683c0 4.79-1.866 9.295-5.253 12.684-.358.355-.83.55-1.331.55-.504 0-.977-.196-1.331-.553a1.86 1.86 0 0 1-.552-1.329c0-.502.196-.975.553-1.331a14.08 14.08 0 0 0 4.15-10.02c0-3.785-1.474-7.345-4.151-10.022a1.87 1.87 0 0 1-.552-1.328c0-.504.196-.977.552-1.333a1.888 1.888 0 0 1 1.33-.537h.002c.503 0 .987.196 1.327.537a17.81 17.81 0 0 1 5.256 12.682z"
              mask="url(&quot;#flyjb&quot;)"/>
        <path fill="#1cf18f" fill-opacity=".6"
              d="M161.974 113.432c0 19.573-15.924 35.497-35.497 35.497s-35.496-15.924-35.496-35.497c0-19.572 15.923-35.496 35.496-35.496s35.497 15.924 35.497 35.496zm-3.295 0c0-17.756-14.446-32.202-32.202-32.202s-32.202 14.446-32.202 32.202 14.446 32.202 32.202 32.202 32.202-14.446 32.202-32.202zm-30.32 0c0 .481-.194.96-.534 1.317-.386.37-.86.565-1.348.565-.48 0-.96-.194-1.316-.532-.37-.388-.565-.862-.565-1.35 0-.48.194-.96.531-1.316.751-.73 1.947-.737 2.675-.024l.01.01c.353.369.547.842.547 1.33zm-6.228 4.347c.355.355.552.827.552 1.33 0 .502-.197.975-.552 1.33a1.864 1.864 0 0 1-1.33.551c-.504 0-.976-.196-1.331-.552a9.841 9.841 0 0 1-2.902-7.006 9.843 9.843 0 0 1 2.903-7.006c.682-.683 1.978-.683 2.66 0 .355.355.552.828.552 1.331-.001.503-.198.975-.553 1.33a6.11 6.11 0 0 0-1.799 4.345c0 1.642.639 3.186 1.8 4.347zm11.354 2.66a1.867 1.867 0 0 1-1.331.551c-.504 0-.976-.196-1.332-.553a1.861 1.861 0 0 1-.55-1.329c0-.503.196-.975.552-1.33a6.153 6.153 0 0 0 0-8.692 1.863 1.863 0 0 1-.553-1.33c0-.503.196-.976.553-1.331.72-.72 1.938-.72 2.66 0 3.862 3.864 3.862 10.15 0 14.014zm-17.03 5.676a1.87 1.87 0 0 1-1.33.55 1.87 1.87 0 0 1-1.33-.55 17.816 17.816 0 0 1-5.254-12.683c0-4.79 1.866-9.294 5.253-12.683.683-.683 1.978-.683 2.66 0a1.883 1.883 0 0 1 0 2.66 14.088 14.088 0 0 0-4.15 10.023 14.08 14.08 0 0 0 4.152 10.022 1.883 1.883 0 0 1 0 2.66zm27.959-12.683c0 4.79-1.866 9.295-5.253 12.684-.358.355-.83.55-1.331.55-.504 0-.977-.196-1.331-.553a1.86 1.86 0 0 1-.552-1.329c0-.502.196-.975.553-1.331a14.08 14.08 0 0 0 4.15-10.02c0-3.785-1.474-7.345-4.151-10.022a1.87 1.87 0 0 1-.552-1.328c0-.504.196-.977.552-1.333a1.888 1.888 0 0 1 1.33-.537h.002c.503 0 .987.196 1.327.537a17.81 17.81 0 0 1 5.256 12.682z"/>
      </g>
      <path fill="#39b276"
            d="M161.974 113.432c0 19.573-15.924 35.497-35.497 35.497s-35.496-15.924-35.496-35.497c0-19.572 15.923-35.496 35.496-35.496s35.497 15.924 35.497 35.496zm-3.295 0c0-17.756-14.446-32.202-32.202-32.202s-32.202 14.446-32.202 32.202 14.446 32.202 32.202 32.202 32.202-14.446 32.202-32.202zm-30.32 0c0 .481-.194.96-.534 1.317-.386.37-.86.565-1.348.565-.48 0-.96-.194-1.316-.532-.37-.388-.565-.862-.565-1.35 0-.48.194-.96.531-1.316.751-.73 1.947-.737 2.675-.024l.01.01c.353.369.547.842.547 1.33zm-6.228 4.347c.355.355.552.827.552 1.33 0 .502-.197.975-.552 1.33a1.864 1.864 0 0 1-1.33.551c-.504 0-.976-.196-1.331-.552a9.841 9.841 0 0 1-2.902-7.006 9.843 9.843 0 0 1 2.903-7.006c.682-.683 1.978-.683 2.66 0 .355.355.552.828.552 1.331-.001.503-.198.975-.553 1.33a6.11 6.11 0 0 0-1.799 4.345c0 1.642.639 3.186 1.8 4.347zm11.354 2.66a1.867 1.867 0 0 1-1.331.551c-.504 0-.976-.196-1.332-.553a1.861 1.861 0 0 1-.55-1.329c0-.503.196-.975.552-1.33a6.153 6.153 0 0 0 0-8.692 1.863 1.863 0 0 1-.553-1.33c0-.503.196-.976.553-1.331.72-.72 1.938-.72 2.66 0 3.862 3.864 3.862 10.15 0 14.014zm-17.03 5.676a1.87 1.87 0 0 1-1.33.55 1.87 1.87 0 0 1-1.33-.55 17.816 17.816 0 0 1-5.254-12.683c0-4.79 1.866-9.294 5.253-12.683.683-.683 1.978-.683 2.66 0a1.883 1.883 0 0 1 0 2.66 14.088 14.088 0 0 0-4.15 10.023 14.08 14.08 0 0 0 4.152 10.022 1.883 1.883 0 0 1 0 2.66zm27.959-12.683c0 4.79-1.866 9.295-5.253 12.684-.358.355-.83.55-1.331.55-.504 0-.977-.196-1.331-.553a1.86 1.86 0 0 1-.552-1.329c0-.502.196-.975.553-1.331a14.08 14.08 0 0 0 4.15-10.02c0-3.785-1.474-7.345-4.151-10.022a1.87 1.87 0 0 1-.552-1.328c0-.504.196-.977.552-1.333a1.888 1.888 0 0 1 1.33-.537h.002c.503 0 .987.196 1.327.537a17.81 17.81 0 0 1 5.256 12.682z"/>
    </g>
  </g>
</svg>
