<svg xmlns="http://www.w3.org/2000/svg" width="144.5" height="142" viewBox="0 0 289 284">
  <defs>
    <mask id="4rqcb" width="2" height="2" x="-1" y="-1">
      <path fill="#fff" d="M98 136h69v66H98z"/>
      <path
        d="M167 170.054c0 14.484-9.161 26.867-22.102 31.788a1.607 1.607 0 0 1-.24.09c-.83.24-1.703-.224-1.948-1.037-.245-.813.23-1.666 1.061-1.906 11.75-4.468 20.092-15.716 20.092-28.935 0-17.148-14.032-30.997-31.363-30.997-17.332 0-31.364 13.849-31.364 30.997 0 13.219 8.342 24.467 20.092 28.935.083.024.163.054.24.09a1.52 1.52 0 0 1 .728 2.05c-.377.763-1.315 1.082-2.095.713C107.161 196.92 98 184.538 98 170.054c0-18.79 15.456-34.065 34.5-34.065 19.043 0 34.5 15.275 34.5 34.065zm-24.16-11.267c0 4.123-2.502 7.667-6.077 9.277 8.434 1.639 14.873 8.035 14.873 15.87 0 .847-.702 1.534-1.568 1.534h-35.137c-.866 0-1.568-.687-1.568-1.534 0-7.835 6.44-14.231 14.873-15.87-3.574-1.61-6.077-5.154-6.077-9.277 0-5.625 4.647-10.213 10.34-10.213 5.694 0 10.34 4.588 10.34 10.213zm-17.569 0c0 3.958 3.222 7.144 7.229 7.144 4.006 0 7.228-3.186 7.228-7.144 0-3.959-3.222-7.144-7.228-7.144-4.007 0-7.229 3.185-7.229 7.144zm-8.576 23.613h31.61c-.924-6.48-7.486-11.675-15.805-11.675-8.32 0-14.882 5.196-15.805 11.675z"/>
    </mask>
    <filter id="4rqca" width="191" height="188" x="37" y="75" filterUnits="userSpaceOnUse">
      <feOffset in="SourceGraphic" result="FeOffset1131Out"/>
      <feGaussianBlur in="FeOffset1131Out" result="FeGaussianBlur1132Out" stdDeviation="20.4 20.4"/>
    </filter>
  </defs>
  <g>
    <g>
      <g>
        <path fill="#1f3f52" fill-opacity="0.039" d="M288.996 214.035L65.098 283.62l-13.813-178.62z"/>
      </g>
      <g>
        <path fill="#1f3f52" fill-opacity="0.129" d="M107.503.145l20.04 158.889L-.003 76.748z"/>
      </g>
      <g>
        <path fill="#1f3f52" fill-opacity="0.039" d="M217.447 163.388l-12.456 100.297-70.943-66.688z"/>
      </g>
      <g>
        <path fill="#1f3f52" fill-opacity="0.2" d="M155.555 56.407l30.067 102.68L128.836 58.18z"/>
      </g>
      <g>
        <path fill="#1f3f52" fill-opacity="0.071" d="M95.364 228.776l-63.17 25.22 26.731-52.128z"/>
      </g>
    </g>
    <g>
      <g filter="url(#4rqca)">
        <path fill="none"
              d="M167 170.054c0 14.484-9.161 26.867-22.102 31.788a1.607 1.607 0 0 1-.24.09c-.83.24-1.703-.224-1.948-1.037-.245-.813.23-1.666 1.061-1.906 11.75-4.468 20.092-15.716 20.092-28.935 0-17.148-14.032-30.997-31.363-30.997-17.332 0-31.364 13.849-31.364 30.997 0 13.219 8.342 24.467 20.092 28.935.083.024.163.054.24.09a1.52 1.52 0 0 1 .728 2.05c-.377.763-1.315 1.082-2.095.713C107.161 196.92 98 184.538 98 170.054c0-18.79 15.456-34.065 34.5-34.065 19.043 0 34.5 15.275 34.5 34.065zm-24.16-11.267c0 4.123-2.502 7.667-6.077 9.277 8.434 1.639 14.873 8.035 14.873 15.87 0 .847-.702 1.534-1.568 1.534h-35.137c-.866 0-1.568-.687-1.568-1.534 0-7.835 6.44-14.231 14.873-15.87-3.574-1.61-6.077-5.154-6.077-9.277 0-5.625 4.647-10.213 10.34-10.213 5.694 0 10.34 4.588 10.34 10.213zm-17.569 0c0 3.958 3.222 7.144 7.229 7.144 4.006 0 7.228-3.186 7.228-7.144 0-3.959-3.222-7.144-7.228-7.144-4.007 0-7.229 3.185-7.229 7.144zm-8.576 23.613h31.61c-.924-6.48-7.486-11.675-15.805-11.675-8.32 0-14.882 5.196-15.805 11.675z"
              mask="url(&quot;#4rqcb&quot;)"/>
        <path fill="#1cf18f" fill-opacity=".6"
              d="M167 170.054c0 14.484-9.161 26.867-22.102 31.788a1.607 1.607 0 0 1-.24.09c-.83.24-1.703-.224-1.948-1.037-.245-.813.23-1.666 1.061-1.906 11.75-4.468 20.092-15.716 20.092-28.935 0-17.148-14.032-30.997-31.363-30.997-17.332 0-31.364 13.849-31.364 30.997 0 13.219 8.342 24.467 20.092 28.935.083.024.163.054.24.09a1.52 1.52 0 0 1 .728 2.05c-.377.763-1.315 1.082-2.095.713C107.161 196.92 98 184.538 98 170.054c0-18.79 15.456-34.065 34.5-34.065 19.043 0 34.5 15.275 34.5 34.065zm-24.16-11.267c0 4.123-2.502 7.667-6.077 9.277 8.434 1.639 14.873 8.035 14.873 15.87 0 .847-.702 1.534-1.568 1.534h-35.137c-.866 0-1.568-.687-1.568-1.534 0-7.835 6.44-14.231 14.873-15.87-3.574-1.61-6.077-5.154-6.077-9.277 0-5.625 4.647-10.213 10.34-10.213 5.694 0 10.34 4.588 10.34 10.213zm-17.569 0c0 3.958 3.222 7.144 7.229 7.144 4.006 0 7.228-3.186 7.228-7.144 0-3.959-3.222-7.144-7.228-7.144-4.007 0-7.229 3.185-7.229 7.144zm-8.576 23.613h31.61c-.924-6.48-7.486-11.675-15.805-11.675-8.32 0-14.882 5.196-15.805 11.675z"/>
      </g>
      <path fill="#39b276"
            d="M167 170.054c0 14.484-9.161 26.867-22.102 31.788a1.607 1.607 0 0 1-.24.09c-.83.24-1.703-.224-1.948-1.037-.245-.813.23-1.666 1.061-1.906 11.75-4.468 20.092-15.716 20.092-28.935 0-17.148-14.032-30.997-31.363-30.997-17.332 0-31.364 13.849-31.364 30.997 0 13.219 8.342 24.467 20.092 28.935.083.024.163.054.24.09a1.52 1.52 0 0 1 .728 2.05c-.377.763-1.315 1.082-2.095.713C107.161 196.92 98 184.538 98 170.054c0-18.79 15.456-34.065 34.5-34.065 19.043 0 34.5 15.275 34.5 34.065zm-24.16-11.267c0 4.123-2.502 7.667-6.077 9.277 8.434 1.639 14.873 8.035 14.873 15.87 0 .847-.702 1.534-1.568 1.534h-35.137c-.866 0-1.568-.687-1.568-1.534 0-7.835 6.44-14.231 14.873-15.87-3.574-1.61-6.077-5.154-6.077-9.277 0-5.625 4.647-10.213 10.34-10.213 5.694 0 10.34 4.588 10.34 10.213zm-17.569 0c0 3.958 3.222 7.144 7.229 7.144 4.006 0 7.228-3.186 7.228-7.144 0-3.959-3.222-7.144-7.228-7.144-4.007 0-7.229 3.185-7.229 7.144zm-8.576 23.613h31.61c-.924-6.48-7.486-11.675-15.805-11.675-8.32 0-14.882 5.196-15.805 11.675z"/>
    </g>
  </g>
</svg>
